<svg width="87" height="20" viewBox="0 0 87 20" fill="none" xmlns="http://www.w3.org/2000/svg">
<rect width="86.5096" height="20" rx="10" fill="#F7E041"/>
<rect x="4.19336" y="3.73438" width="12.5832" height="12.5832" rx="6.29161" fill="#1E1E1E"/>
<path d="M8.66588 13.1744V6.88281H10.675C11.4856 6.88281 12.076 7.0473 12.4461 7.37627C12.8221 7.70524 13.0101 8.15758 13.0101 8.73329C13.0101 9.07401 12.9337 9.39417 12.781 9.69377C12.6282 9.99337 12.3727 10.2342 12.0144 10.4163C11.6619 10.5984 11.1802 10.6895 10.5692 10.6895H9.99646V13.1744H8.66588ZM7.96094 12.2316V11.3768H11.3535V12.2316H7.96094ZM7.96094 10.6895V9.59684H10.5428V10.6895H7.96094ZM10.437 9.59684C10.6897 9.59684 10.907 9.5704 11.0891 9.51753C11.2712 9.45879 11.4122 9.36773 11.5121 9.24437C11.612 9.121 11.6619 8.96533 11.6619 8.77734C11.6619 8.50712 11.5767 8.30738 11.4063 8.17814C11.236 8.04303 10.9687 7.97547 10.6045 7.97547H9.99646V9.59684H10.437Z" fill="#F7E041"/>
<path d="M49.2817 6.98475H47.0766L45.6377 9.05835L44.2098 6.98475H42.0055V12.9847H44.1415V10.0673L45.6032 12.0634L47.1112 10.0235V12.9847H49.2817V6.98475Z" fill="#1E1E1E"/>
<path d="M53.6217 6.85156C52.6396 6.85156 51.8228 7.15839 51.1721 7.77204C50.5214 8.38569 50.196 9.12494 50.196 9.98978C50.196 10.8622 50.5197 11.6031 51.167 12.2134C51.8144 12.8237 52.6253 13.128 53.5997 13.128C54.5826 13.128 55.3985 12.8212 56.0501 12.2075C56.7009 11.5939 57.0262 10.8546 57.0262 9.98978C57.0262 9.11735 56.7026 8.37642 56.0552 7.76614C55.407 7.1567 54.5961 6.85156 53.6217 6.85156ZM53.6217 11.3427C53.2482 11.3427 52.9364 11.2095 52.6852 10.9431C52.434 10.6768 52.3084 10.359 52.3084 9.98978C52.3084 9.60541 52.4264 9.28425 52.6624 9.02463C52.8984 8.76585 53.2111 8.63688 53.5989 8.63688C53.9723 8.63688 54.2842 8.77007 54.5354 9.03643C54.7866 9.3028 54.9122 9.62058 54.9122 9.99063C54.9122 10.375 54.7942 10.697 54.5581 10.9558C54.3221 11.2137 54.0094 11.3427 53.6217 11.3427Z" fill="#1E1E1E"/>
<path d="M64.0607 6.98475H61.891V9.11399H60.1091V6.98475H57.9385V12.9847H60.1091V10.8108H61.891V12.9847H64.0607V6.98475Z" fill="#1E1E1E"/>
<path d="M68.0928 6.85156C67.1866 6.85156 66.4398 7.15333 65.8539 7.75518C65.2673 8.35787 64.9748 9.10302 64.9748 9.98978C64.9748 10.9288 65.2833 11.6866 65.9003 12.2632C66.5173 12.8397 67.313 13.128 68.2875 13.128C69.4145 13.128 70.3088 12.7217 70.9714 11.9083L69.7719 10.9431C69.3453 11.3503 68.8885 11.5534 68.4013 11.5534C67.6856 11.5534 67.2397 11.2247 67.0652 10.5663H71.1998C71.2074 10.4703 71.2116 10.3261 71.2116 10.1339C71.2116 9.18732 70.9452 8.40339 70.4125 7.783C69.8789 7.16176 69.1059 6.85156 68.0928 6.85156ZM67.0307 9.49077C67.0914 9.15866 67.2153 8.89398 67.4016 8.69757C67.5878 8.50201 67.8222 8.40339 68.1045 8.40339C68.4013 8.40339 68.6449 8.50117 68.8354 8.69757C69.0259 8.89398 69.1397 9.15781 69.1784 9.49077H67.0307Z" fill="#1E1E1E"/>
<path d="M77.4475 6.98475H71.6684V8.68157H73.4731V12.9847H75.6428V8.68157H77.4475V6.98475Z" fill="#1E1E1E"/>
<path d="M20.9712 12.999V6.99907H23.1417V9.12916H24.9237V6.99907H27.0934V12.999H24.9237V10.8251H23.1417V12.999H20.9712Z" fill="#1E1E1E"/>
<path d="M30.0632 9.50594H32.2101C32.1722 9.17298 32.0576 8.90914 31.8671 8.71274C31.6766 8.51718 31.433 8.41856 31.1362 8.41856C30.8547 8.41856 30.6204 8.51634 30.4341 8.71274C30.2478 8.90914 30.1239 9.17298 30.0632 9.50594ZM31.3192 13.1432C30.3447 13.1432 29.549 12.8549 28.932 12.2783C28.315 11.7018 28.0065 10.944 28.0065 10.0049C28.0065 9.11819 28.2998 8.37304 28.8856 7.77035C29.4715 7.16765 30.2183 6.86673 31.1244 6.86673C32.1368 6.86673 32.9098 7.17693 33.4433 7.79816C33.9761 8.4194 34.2433 9.20332 34.2433 10.1491C34.2433 10.3413 34.2391 10.4854 34.2315 10.5815H30.0969C30.2722 11.2398 30.7173 11.5686 31.433 11.5686C31.9202 11.5686 32.377 11.3654 32.8036 10.9583L34.003 11.9235C33.3413 12.7369 32.4462 13.1432 31.3192 13.1432Z" fill="#1E1E1E"/>
<path d="M36.5048 12.999V8.69589H34.7001V6.99907H40.48V8.69589H38.6753V12.999H36.5048Z" fill="#1E1E1E"/>
</svg>
